<svg id="그룹_1573" data-name="그룹 1573" xmlns="http://www.w3.org/2000/svg" xmlns:xlink="http://www.w3.org/1999/xlink" width="180" height="70" viewBox="0 0 180 70">
  <defs>
    <clipPath id="clip-path">
      <rect id="사각형_13" data-name="사각형 13" width="180" height="70" fill="#999"/>
    </clipPath>
    <clipPath id="clip-path-2">
      <path id="패스_36" data-name="패스 36" d="M146.286,64.505a2.318,2.318,0,0,0-.055.508V66.32a2.049,2.049,0,0,0,.055.49,1.67,1.67,0,0,0,1.616,1.307c1.18,0,1.906-.908,1.906-2.505,0-1.38-.617-2.47-1.906-2.47a1.71,1.71,0,0,0-1.616,1.362" transform="translate(-146.231 -63.143)" fill="#999"/>
    </clipPath>
    <clipPath id="clip-path-3">
      <path id="패스_37" data-name="패스 37" d="M24.45,41.186a8.236,8.236,0,0,1,2.353-2.2,6.616,6.616,0,0,1,3.471-.895c3.512,0,6.162,2.461,6.162,7.9V56.724H30.91V46.811c0-2.646-.857-4.172-2.687-4.172a2.775,2.775,0,0,0-2.614,1.975,4.748,4.748,0,0,0-.221,1.454V56.724H19.861V46.514c0-2.309-.821-3.875-2.614-3.875a2.888,2.888,0,0,0-2.65,2.048,3.779,3.779,0,0,0-.221,1.417v10.62H8.848V44.314c0-2.273-.076-4.208-.149-5.813h4.778l.261,2.461h.113a6.331,6.331,0,0,1,5.523-2.87,5.173,5.173,0,0,1,5,3.1ZM55.6,29.45V19.229H58.36v5.056H58.4a3.13,3.13,0,0,1,2.687-1.25c2.124,0,3.686,1.758,3.668,4.476,0,3.19-2.034,4.784-4.067,4.784a2.948,2.948,0,0,1-2.669-1.431h-.036L57.87,32.1H55.528c.036-.58.073-1.65.073-2.646M45.04,0a5.867,5.867,0,0,0-1.823,11.452,9.518,9.518,0,0,1,6.331,6.679,9.391,9.391,0,0,1,.329,2.248c0,.052.015.1.015.151a9.4,9.4,0,0,1-2.426,6.278c-.164.185-.318.376-.5.548a9.472,9.472,0,0,1-6.587,2.667,9.7,9.7,0,0,1-5.638-1.709A22.6,22.6,0,0,0,.061,46.183c-.022.4-.061.8-.061,1.213s.04.809.061,1.213a22.619,22.619,0,0,0,45.147.4A12.5,12.5,0,0,1,57.737,37.255c.09,0,.6.034.778.034a11.693,11.693,0,1,0,0-23.384c-.591,0-1.183.027-1.782.029a5.832,5.832,0,0,1-3.228-.911,6.069,6.069,0,0,1-2.666-6.2,5.865,5.865,0,0,0,.1-.942A5.889,5.889,0,0,0,45.04,0Z" fill="#999"/>
    </clipPath>
  </defs>
  <g id="logo_w">
    <g id="그룹_29" data-name="그룹 29">
      <g id="그룹_28" data-name="그룹 28" clip-path="url(#clip-path)">
        <path id="패스_31" data-name="패스 31" d="M162.363,105.222v9.57h2.2V104.642H168.8v28.3h-4.232V117.957h-2.2v11.717h-7.711a3.688,3.688,0,0,1-2.671-.86,3.159,3.159,0,0,1-.888-2.444V105.222ZM155.4,126.541h2.648V108.316H155.4Zm19.845,6.414h-4.235V104.648h4.235Z" transform="translate(-90.91 -62.956)" fill="#999"/>
        <path id="패스_32" data-name="패스 32" d="M246.374,105.222v3.13h-10.32v6.839h10.175v3.1H236.054v8.248h14.133v-21.9h4.344v11.471H257.5v3.241h-2.971v13.6h-4.344v-3.283H235.68a4.6,4.6,0,0,1-2.972-.8,3.159,3.159,0,0,1-1-2.594V105.222Z" transform="translate(-139.414 -62.956)" fill="#999"/>
        <path id="패스_33" data-name="패스 33" d="M315.339,104.873v2.879h6.145v-2.879h4.306v12.97H314.732a4.317,4.317,0,0,1-2.816-.745,3.011,3.011,0,0,1-.884-2.419v-9.806ZM334.3,119.794v8.02h-17.48V129.4h17.674v3.277H316.43a4.557,4.557,0,0,1-2.968-.855,2.874,2.874,0,0,1-1-2.356v-4.893h17.49V123.03h-17.49v-3.236Zm-18.956-5.084h6.145v-3.826h-6.145Zm18.956,3.526h-4.339V104.642H334.3Z" transform="translate(-187.143 -62.956)" fill="#999"/>
        <path id="패스_34" data-name="패스 34" d="M413.418,131.786H387.941v-3.236h25.477ZM411.96,109.3H393.719v8.276h18.506v3.174H392.981a3.846,3.846,0,0,1-2.759-.917,3.258,3.258,0,0,1-.857-2.4v-11.3h22.6Z" transform="translate(-233.418 -63.852)" fill="#999"/>
        <path id="패스_35" data-name="패스 35" d="M145.87,137.529c0-.012,0-.021,0-.033s0-.021,0-.033Z" transform="translate(-87.768 -82.702)" fill="#999"/>
      </g>
    </g>
    <g id="그룹_31" data-name="그룹 31" transform="translate(58.244 25.151)">
      <g id="그룹_30" data-name="그룹 30" clip-path="url(#clip-path-2)">
        <rect id="사각형_14" data-name="사각형 14" width="6.099" height="5.593" transform="translate(-2.162 3.717) rotate(-59.816)" fill="#999"/>
      </g>
    </g>
    <g id="그룹_33" data-name="그룹 33">
      <g id="그룹_32" data-name="그룹 32" clip-path="url(#clip-path-3)">
        <rect id="사각형_15" data-name="사각형 15" width="95.803" height="95.929" transform="translate(-30.478 52.305) rotate(-59.816)" fill="#999"/>
      </g>
    </g>
    <g id="그룹_35" data-name="그룹 35">
      <g id="그룹_34" data-name="그룹 34" clip-path="url(#clip-path)">
        <path id="패스_38" data-name="패스 38" d="M194.046,71.592c-.043-.958-.1-2.114-.088-3.116h-.033c-.242.9-.551,1.9-.881,2.841l-1.079,3.216h-1.046l-.991-3.173c-.287-.947-.551-1.959-.748-2.885h-.023c-.033.969-.076,2.147-.132,3.16l-.165,2.985h-1.267l.5-7.423h1.784l.97,2.985c.264.871.5,1.752.683,2.577h.033c.2-.8.452-1.717.738-2.587L193.32,67.2h1.761l.429,7.423h-1.321Z" transform="translate(-112.873 -40.428)" fill="#999"/>
        <path id="패스_39" data-name="패스 39" d="M218.914,71.328h-2.8v2.179h3.128V74.62h-4.481V67.2h4.315V68.31h-2.961v1.915h2.8Z" transform="translate(-129.22 -40.428)" fill="#999"/>
        <path id="패스_40" data-name="패스 40" d="M233.5,68.332h-2.114V67.2h5.6v1.135H234.85v6.288H233.5Z" transform="translate(-139.219 -40.428)" fill="#999"/>
        <path id="패스_41" data-name="패스 41" d="M250.121,72.516l-.638,2.1h-1.4l2.378-7.423h1.729L254.6,74.62h-1.453l-.672-2.1Zm2.125-1.023-.584-1.828c-.143-.452-.264-.958-.374-1.388h-.022c-.11.43-.22.947-.353,1.388l-.572,1.828Z" transform="translate(-149.268 -40.428)" fill="#999"/>
        <path id="패스_42" data-name="패스 42" d="M270.891,67.216a11.111,11.111,0,0,1,1.97-.155,3.532,3.532,0,0,1,2.126.473,1.566,1.566,0,0,1,.77,1.388,1.727,1.727,0,0,1-1.232,1.609v.022a1.871,1.871,0,0,1,1.5,1.84,1.92,1.92,0,0,1-.716,1.529,4.12,4.12,0,0,1-2.752.694,13.308,13.308,0,0,1-1.663-.1Zm1.343,2.928h.694c.936,0,1.464-.441,1.464-1.066,0-.694-.528-1.015-1.386-1.015a3.663,3.663,0,0,0-.771.057Zm0,3.415a6.043,6.043,0,0,0,.715.032c.871,0,1.641-.329,1.641-1.243,0-.86-.748-1.211-1.684-1.211h-.672Z" transform="translate(-162.991 -40.346)" fill="#999"/>
        <path id="패스_43" data-name="패스 43" d="M291.985,67.2v4.329c0,1.454.605,2.125,1.52,2.125.979,0,1.563-.672,1.563-2.125V67.2h1.355v4.24c0,2.291-1.178,3.306-2.961,3.306-1.718,0-2.83-.96-2.83-3.295V67.2Z" transform="translate(-174.869 -40.428)" fill="#999"/>
        <rect id="사각형_16" data-name="사각형 16" width="1.354" height="7.423" transform="translate(124.637 26.77)" fill="#999"/>
        <path id="패스_44" data-name="패스 44" d="M324.065,67.2h1.353v6.289h3.05V74.62h-4.4Z" transform="translate(-194.985 -40.428)" fill="#999"/>
        <path id="패스_45" data-name="패스 45" d="M341.541,67.216a13.5,13.5,0,0,1,2.158-.155,4.51,4.51,0,0,1,3.028.86,3.317,3.317,0,0,1,1.156,2.73,3.846,3.846,0,0,1-1.156,2.952,4.952,4.952,0,0,1-3.359,1.012,14.891,14.891,0,0,1-1.827-.1Zm1.353,6.289a5.111,5.111,0,0,0,.75.033,2.541,2.541,0,0,0,2.807-2.841,2.353,2.353,0,0,0-2.631-2.577,4.395,4.395,0,0,0-.925.076Z" transform="translate(-205.5 -40.346)" fill="#999"/>
        <path id="패스_46" data-name="패스 46" d="M359.91,82.9a.66.66,0,0,1,.669-.7.7.7,0,0,1,0,1.393.66.66,0,0,1-.669-.7" transform="translate(-216.553 -49.456)" fill="#999"/>
        <path id="패스_47" data-name="패스 47" d="M372.139,74.22a4.681,4.681,0,0,1-1.915.329,3.5,3.5,0,0,1-3.789-3.73A3.733,3.733,0,0,1,370.4,66.9a4.291,4.291,0,0,1,1.806.329l-.3,1.08a3.6,3.6,0,0,0-1.453-.286,2.472,2.472,0,0,0-2.6,2.729,2.438,2.438,0,0,0,2.589,2.677,3.828,3.828,0,0,0,1.475-.274Z" transform="translate(-220.479 -40.247)" fill="#999"/>
        <path id="패스_48" data-name="패스 48" d="M387.455,74.818a2.658,2.658,0,0,1-2.754,2.855,2.594,2.594,0,0,1-2.687-2.765,2.647,2.647,0,0,1,2.775-2.841,2.572,2.572,0,0,1,2.665,2.751m-4.042.057c0,1.034.507,1.815,1.333,1.815.77,0,1.31-.759,1.31-1.837,0-.838-.376-1.8-1.3-1.8-.959,0-1.344.925-1.344,1.818" transform="translate(-229.853 -43.358)" fill="#999"/>
        <path id="패스_49" data-name="패스 49" d="M397.581,82.9a.661.661,0,0,1,.67-.7.7.7,0,0,1,0,1.393.66.66,0,0,1-.67-.7" transform="translate(-239.219 -49.456)" fill="#999"/>
        <path id="패스_50" data-name="패스 50" d="M402.177,84.683a11.7,11.7,0,0,0,.481-1.9l.927-.072a9.194,9.194,0,0,1-.8,1.912Z" transform="translate(-241.984 -49.762)" fill="#999"/>
        <path id="패스_51" data-name="패스 51" d="M407.865,67.2h1.354v6.289h3.05V74.62h-4.4Z" transform="translate(-245.406 -40.428)" fill="#999"/>
        <path id="패스_52" data-name="패스 52" d="M421.344,68.529v1.529h1.288V71.07h-1.288v2.37c0,.648.177.991.694.991a2.022,2.022,0,0,0,.529-.065l.022,1.034a3.016,3.016,0,0,1-.98.13,1.566,1.566,0,0,1-1.167-.438,2.141,2.141,0,0,1-.419-1.5V71.07h-.77V70.058h.77V68.847Z" transform="translate(-252.258 -41.229)" fill="#999"/>
        <path id="패스_53" data-name="패스 53" d="M434.535,66.206v6.311c0,.55.022,1.143.045,1.507h-1.212l-.055-.849h-.022a1.932,1.932,0,0,1-1.751.972A2.457,2.457,0,0,1,429.25,71.4a2.551,2.551,0,0,1,2.4-2.863,1.709,1.709,0,0,1,1.509.705h.022v-3.04ZM433.182,70.9a1.841,1.841,0,0,0-.034-.354,1.187,1.187,0,0,0-1.166-.958c-.871,0-1.355.77-1.355,1.774,0,.98.484,1.7,1.343,1.7a1.2,1.2,0,0,0,1.167-.958,1.465,1.465,0,0,0,.045-.4Z" transform="translate(-258.273 -39.831)" fill="#999"/>
        <path id="패스_54" data-name="패스 54" d="M444.773,82.9a.661.661,0,0,1,.67-.7.7.7,0,0,1,0,1.393.66.66,0,0,1-.67-.7" transform="translate(-267.613 -49.456)" fill="#999"/>
      </g>
    </g>
  </g>
</svg>
